<?xml version="1.0" encoding="utf-8"?>
<!-- Generator: Adobe Illustrator 16.0.0, SVG Export Plug-In . SVG Version: 6.00 Build 0)  -->
<!DOCTYPE svg PUBLIC "-//W3C//DTD SVG 1.1//EN" "http://www.w3.org/Graphics/SVG/1.1/DTD/svg11.dtd">
<svg version="1.1" id="Laag_1" xmlns="http://www.w3.org/2000/svg" xmlns:xlink="http://www.w3.org/1999/xlink" x="0px" y="0px"
	 width="623.62px" height="198.43px" viewBox="0 0 623.62 198.43" enable-background="new 0 0 623.62 198.43" xml:space="preserve">
<path fill="#1D1D1B" d="M246.453,35.117h-6.72l-0.883-1.504h-4.357V20.452c3.067-1.196,5.243-4.179,5.243-7.671
	c0-4.544-3.685-8.228-8.229-8.228s-8.228,3.684-8.228,8.228c0,3.492,2.173,6.475,5.241,7.671v13.162h-4.356l-0.883,1.504h-6.72
	l-9.848,7.184l3.591,11.586h21.203h21.203l3.592-11.586L246.453,35.117z M226.255,9.681c0-1.795,1.455-3.251,3.25-3.251
	c1.795,0,3.25,1.456,3.25,3.251c0,1.795-1.456,3.25-3.25,3.25C227.709,12.932,226.255,11.477,226.255,9.681z M213.33,42.301
	l5.56-4.055h2.556l-1.001,1.706h11.062l0,0h11.061l-0.999-1.706h2.555l5.559,4.055H213.33z"/>
<g>
	<path fill="#1D1D1B" d="M237.256,157.748V65.75h25.637c8.342,0,20.363,0.736,26.373,7.605c5.03,5.643,6.012,12.513,6.012,19.995
		c0,9.934-2.332,21.096-12.144,25.635c-7.483,3.681-16.192,2.576-24.288,2.945v35.817H237.256z M258.846,105.371
		c4.047-0.122,8.708,0.367,12.144-2.332c2.208-2.453,2.699-6.134,2.699-9.322c0-3.557-0.368-8.955-4.048-10.672
		c-2.086-0.734-5.03-0.734-8.464-0.734h-2.331V105.371z"/>
	<path fill="#1D1D1B" d="M303.498,157.748V65.75h21.589v73.598h26.373v18.4H303.498z"/>
	<path fill="#1D1D1B" d="M359.065,157.748V65.75H408.5v18.4h-27.846v16.927h26.986v18.4h-26.986v19.87h29.318v18.4H359.065z"/>
	<path fill="#1D1D1B" d="M415.861,157.748l20.118-91.998h26.005l19.994,91.998h-21.834l-3.067-17.908h-16.929l-2.575,17.908H415.861
		z M448.981,82.433h-0.245l-6.256,41.214h12.511L448.981,82.433z"/>
	<path fill="#1D1D1B" d="M504.918,126.96v6.501c0,5.275,1.718,9.937,8.587,9.937c5.03,0,7.237-4.539,7.237-9.2
		c0-7.728-6.379-10.673-12.021-14.106c-6.623-3.804-12.266-7.359-16.314-12.021c-3.926-4.661-6.255-10.305-6.255-18.399
		c0-17.297,10.426-26.129,27.108-26.129c18.769,0,28.336,12.513,27.355,29.809h-19.873c-0.245-5.397,0-12.757-7.114-13.249
		c-4.415-0.367-6.992,2.086-7.483,6.134c-0.612,5.52,2.209,8.341,6.502,11.285c8.096,5.152,15.088,8.341,20.117,13.002
		c5.029,4.662,7.974,10.796,7.974,21.958c0,17.664-9.813,27.478-27.723,27.478c-19.749,0-28.091-11.04-28.091-23.184v-9.813H504.918
		z"/>
	<path fill="#1D1D1B" d="M549.938,157.748V65.75h49.435v18.4h-27.845v16.927h26.985v18.4h-26.985v19.87h29.316v18.4H549.938z"/>
</g>
<path fill="#009900" d="M30.301,157.656V65.842h34.43v11.477H41.777v34.431H64.73V77.319h11.477v68.859H64.73v-22.954H41.777v22.954
	H64.73v11.478H30.301z"/>
<path fill="#0066CB" d="M87.684,157.656V65.842H99.16v91.814H87.684z"/>
<path fill="#FECB00" d="M133.59,157.656V77.319h-22.953V65.842h57.383v11.477h-22.953v80.337H133.59z"/>
<path fill="#CC0001" d="M213.927,146.179V111.75h-34.43V77.319h11.477v22.953h34.43v45.906H213.927z M179.497,157.656v-11.478h34.43
	v11.478H179.497z M190.974,77.319V65.842h34.43v11.477H190.974z"/>
<rect x="265.943" y="35.13" fill="#1D1D1B" width="333.43" height="7.232"/>
<rect x="30.301" y="186.197" fill="#1D1D1B" width="569.072" height="7.232"/>
<rect x="30.301" y="35.13" fill="#1D1D1B" width="166.768" height="7.232"/>
</svg>
